<svg xmlns="http://www.w3.org/2000/svg"  viewBox="0 0 50 50" width="100px" height="100px"><path d="M 30.498047 2.9960938 L 29.824219 7.1347656 C 29.28759 7.306387 28.772653 7.5168671 28.277344 7.7695312 L 24.863281 5.3300781 L 21.373047 8.8203125 L 23.773438 12.25 C 23.514982 12.750838 23.297388 13.271991 23.121094 13.816406 L 19 14.501953 L 19 19.4375 L 23.115234 20.166016 C 23.290496 20.709243 23.507394 21.229898 23.765625 21.730469 L 21.333984 25.132812 L 24.822266 28.625 L 28.259766 26.21875 C 28.757258 26.473819 29.275274 26.687804 29.814453 26.861328 L 30.501953 31 L 35.4375 31 L 36.173828 26.849609 C 36.711072 26.673866 37.227283 26.457872 37.722656 26.201172 L 41.175781 28.625 L 44.669922 25.130859 L 42.201172 21.701172 C 42.451712 21.211054 42.66279 20.700778 42.833984 20.169922 L 47 19.439453 L 47 18.599609 L 47 14.5 L 42.830078 13.818359 C 42.657596 13.286858 42.44693 12.775932 42.195312 12.285156 L 44.623047 8.8242188 L 41.130859 5.3320312 L 37.710938 7.7890625 C 37.216893 7.534488 36.702406 7.3203921 36.166016 7.1464844 L 35.439453 2.9960938 L 30.498047 2.9960938 z M 21.015625 3.28125 A 1.0001 1.0001 0 0 0 20.845703 3.2949219 C 16.069112 4.0363067 12.798817 6.1904509 10.722656 9.109375 C 8.6963508 11.958207 7.8053184 15.470076 7.3925781 19.078125 L 3.3417969 26.058594 L 3.3378906 26.066406 C 2.6485733 27.306863 3.088337 28.925636 4.3398438 29.621094 L 4.359375 29.630859 L 7.4160156 31.160156 L 8.4003906 38.369141 L 8.4023438 38.380859 C 8.8312394 41.061763 11.181506 43.105303 13.904297 42.996094 L 17 43 L 17 45 L 17 46 L 17 47 L 17.832031 47 A 1.0001 1.0001 0 0 0 18.158203 47 L 19 47 L 19 46 L 19 45 L 19 41 L 13.845703 40.996094 L 13.824219 40.996094 C 12.159009 41.062884 10.650057 39.771549 10.376953 38.064453 L 10.378906 38.087891 L 9.2558594 29.84375 L 5.3125 27.873047 C 4.9840066 27.690504 4.8972548 27.378605 5.0859375 27.039062 L 9.3066406 19.763672 L 9.3300781 19.552734 C 9.7080068 16.038392 10.572426 12.773607 12.353516 10.269531 C 14.134605 7.7654555 16.807888 5.9460996 21.154297 5.2714844 A 1.0001 1.0001 0 0 0 21.015625 3.28125 z M 32.199219 4.9960938 L 33.759766 4.9960938 L 34.400391 8.6582031 L 35.03125 8.8164062 C 35.855025 9.0219034 36.629348 9.347507 37.335938 9.7753906 L 37.900391 10.117188 L 40.917969 7.9472656 L 42.021484 9.0507812 L 39.876953 12.109375 L 40.210938 12.666016 C 40.634658 13.371322 40.957157 14.139176 41.162109 14.958984 L 41.322266 15.597656 L 45 16.199219 L 45 17.757812 L 41.318359 18.40625 L 41.162109 19.037109 C 40.959253 19.855683 40.636419 20.625091 40.212891 21.330078 L 39.875 21.894531 L 42.052734 24.919922 L 40.949219 26.023438 L 37.894531 23.878906 L 37.335938 24.21875 C 36.634633 24.645592 35.856812 24.973094 35.035156 25.181641 L 34.410156 25.339844 L 33.761719 29 L 32.197266 29 L 31.589844 25.349609 L 30.951172 25.191406 C 30.126043 24.987582 29.349166 24.663518 28.638672 24.236328 L 28.082031 23.900391 L 25.050781 26.023438 L 23.945312 24.917969 L 26.091797 21.916016 L 25.75 21.353516 C 25.317839 20.639511 24.992615 19.863434 24.787109 19.035156 L 24.630859 18.404297 L 21 17.761719 L 21 16.195312 L 24.630859 15.589844 L 24.791016 14.955078 C 24.998714 14.123389 25.323775 13.344631 25.753906 12.632812 L 26.091797 12.076172 L 23.974609 9.0488281 L 25.080078 7.9433594 L 28.087891 10.091797 L 28.650391 9.7539062 C 29.357327 9.3295664 30.135555 9.0067852 30.960938 8.8046875 L 31.603516 8.6484375 L 32.199219 4.9960938 z M 33 11.998047 C 30.250421 11.998047 28 14.248468 28 16.998047 C 28 19.747626 30.250421 21.998047 33 21.998047 C 35.749579 21.998047 38 19.747626 38 16.998047 C 38 14.248468 35.749579 11.998047 33 11.998047 z M 33 13.998047 C 34.668699 13.998047 36 15.329348 36 16.998047 C 36 18.666746 34.668699 19.998047 33 19.998047 C 31.331301 19.998047 30 18.666746 30 16.998047 C 30 15.329348 31.331301 13.998047 33 13.998047 z M 39.003906 30.630859 A 1.0001 1.0001 0 0 0 38.181641 31.070312 C 36.240355 33.843728 35.015625 37.112482 35.015625 40.59375 L 35.015625 45 L 35 45 L 35 47 L 35.847656 47 A 1.0001 1.0001 0 0 0 36.173828 47 L 37 47 L 37 46.1875 A 1.0001 1.0001 0 0 0 37.015625 46 L 37.015625 40.59375 C 37.015625 37.581018 38.073645 34.709382 39.818359 32.216797 A 1.0001 1.0001 0 0 0 39.003906 30.630859 z"/></svg>